<svg id="Capa_1" data-name="Capa 1" xmlns="http://www.w3.org/2000/svg" viewBox="0 0 398 70"><defs><style>.cls-1{fill:#0b85f4;}.cls-2{fill:#fff;}</style></defs><title>Log in Intooligeence_</title><path class="cls-1" d="M82.08,40.87A36.78,36.78,0,0,0,45.29,4.13C25.1,4.15,8.6,21.06,8.6,41.25c0,5.71.07,9.19,3.33,11.28,2.49,1.59,6.09,1.73,13.51,1.75a6.22,6.22,0,0,0,4.4-1.83L43.92,38.31a.57.57,0,0,1,.8,0l1.59,1.59a.55.55,0,0,0,.48.15l5.09-.82a.57.57,0,0,0,.45-.41l2.56-9.5a.56.56,0,0,0-.94-.54L48.3,34.44a.57.57,0,0,1-.8,0L44.05,31a.57.57,0,0,1,0-.8l5.66-5.65a.56.56,0,0,0-.54-.94l-9.5,2.56a.57.57,0,0,0-.41.45l-.82,5.09a.53.53,0,0,0,.16.48l1.59,1.59a.59.59,0,0,1,0,.8L27.62,47.13A6.23,6.23,0,0,1,23.17,49c-4.38-.05-7.28-.22-8.37-.91-.81-.52-.87-2.69-.87-6.79,0-17.33,14.14-31.83,31.47-31.79A31.45,31.45,0,0,1,76.64,38.2H60.48a3.53,3.53,0,0,0-2.49,1L43.12,54.11l-3.63,2.1-4.4,5.92,3.74,3.74,5.93-4.4,2.1-3.63L60.14,44.56a3.51,3.51,0,0,1,2.49-1H82.08Z"/><path class="cls-2" d="M100.79,50.49V16.39h8.4v34.1Z"/><path class="cls-2" d="M134.46,27.1a10.93,10.93,0,0,1,2.72,7.72V50.49h-8.09V36.55a5.34,5.34,0,0,0-1.22-3.64,4,4,0,0,0-3.16-1.4,4.69,4.69,0,0,0-3.89,1.75c-.94,1.17-1.4,3-1.4,5.37V50.49h-8.15V24.94h8.15v2.44a10.36,10.36,0,0,1,7.84-3.2A9.38,9.38,0,0,1,134.46,27.1Z"/><path class="cls-1" d="M157.85,49.37a14.63,14.63,0,0,1-7,1.89q-4.83,0-7.5-2.6t-2.68-7.58V31.41h-4.63V24.94h4.63V17.41h8.15v7.53h7.53v6.47h-7.53v8.85c0,2.48,1.13,3.72,3.41,3.72A7.33,7.33,0,0,0,156,43Z"/><path class="cls-1" d="M179,28.05a12.56,12.56,0,0,1,4.08,9.67A12.62,12.62,0,0,1,179,47.44a14.07,14.07,0,0,1-9.92,3.77A14.35,14.35,0,0,1,159,47.44,12.6,12.6,0,0,1,155,37.72,12.54,12.54,0,0,1,159,28.05a14.35,14.35,0,0,1,10.06-3.77A14.07,14.07,0,0,1,179,28.05Zm-5.6,14.43a6.48,6.48,0,0,0,1.84-4.76A6.43,6.43,0,0,0,173.4,33a5.9,5.9,0,0,0-4.3-1.86A6.09,6.09,0,0,0,164.67,33a6.37,6.37,0,0,0-1.88,4.76,6.44,6.44,0,0,0,1.85,4.76,6.09,6.09,0,0,0,4.46,1.86A5.86,5.86,0,0,0,173.42,42.48Z"/><path class="cls-1" d="M205.9,28.05A12.59,12.59,0,0,1,210,37.72a12.65,12.65,0,0,1-4.07,9.72A14.1,14.1,0,0,1,196,51.21a14.3,14.3,0,0,1-10.05-3.77,12.61,12.61,0,0,1-4.1-9.72,12.54,12.54,0,0,1,4.1-9.67A14.3,14.3,0,0,1,196,24.28,14.1,14.1,0,0,1,205.9,28.05Zm-5.6,14.43a6.51,6.51,0,0,0,1.83-4.76A6.43,6.43,0,0,0,200.27,33,5.88,5.88,0,0,0,196,31.1,6.12,6.12,0,0,0,191.54,33a6.41,6.41,0,0,0-1.88,4.76,6.45,6.45,0,0,0,1.86,4.76A6.07,6.07,0,0,0,196,44.34,5.87,5.87,0,0,0,200.3,42.48Z"/><path class="cls-1" d="M210.38,50.49V13.84h8.14V50.49Z"/><path class="cls-2" d="M228.47,14.15a4.5,4.5,0,0,1,1.35,3.26,4.3,4.3,0,0,1-1.35,3.23,4.65,4.65,0,0,1-3.38,1.3,4.58,4.58,0,0,1-3.36-1.3,4.35,4.35,0,0,1-1.32-3.23,4.73,4.73,0,0,1,8.06-3.26ZM221,50.49V24.94h8.14V50.49Z"/><path class="cls-2" d="M258,48a11,11,0,0,1-3.94,9q-3.94,3.24-10.36,3.24-9.12,0-12.83-6.16l6.77-3.67a9.83,9.83,0,0,0,2.77,2.47,6.87,6.87,0,0,0,3.24.69,6.51,6.51,0,0,0,4.6-1.63A5.94,5.94,0,0,0,250,47.29v-.72A11.41,11.41,0,0,1,242.29,49a11.91,11.91,0,0,1-8.7-3.59A12.08,12.08,0,0,1,230,36.5a11.77,11.77,0,0,1,3.62-8.78,12,12,0,0,1,8.7-3.54A11.41,11.41,0,0,1,250,26.62V24.94h8Zm-9.72-7.25A5.59,5.59,0,0,0,250,36.5a5.5,5.5,0,0,0-1.73-4.15A5.87,5.87,0,0,0,244,30.69a6.13,6.13,0,0,0-4.4,1.63,6,6,0,0,0,0,8.38A6.07,6.07,0,0,0,244,42.35,5.9,5.9,0,0,0,248.25,40.7Z"/><path class="cls-2" d="M285.15,39.8H266.42a6.65,6.65,0,0,0,2,3.62,5.12,5.12,0,0,0,3.52,1.32,5.71,5.71,0,0,0,5.44-3l7.23,1.48a12.16,12.16,0,0,1-4.91,6,14.58,14.58,0,0,1-7.76,2,13.27,13.27,0,0,1-9.57-3.79,13,13,0,0,1-3.92-9.75A13,13,0,0,1,262.35,28,13.24,13.24,0,0,1,272,24.18a12.75,12.75,0,0,1,9.31,3.71,13.55,13.55,0,0,1,3.87,9.83Zm-16.49-7.94a5.4,5.4,0,0,0-2.09,3h10.54a5.39,5.39,0,0,0-1.94-3,5.2,5.2,0,0,0-3.2-1A5.68,5.68,0,0,0,268.66,31.86Z"/><path class="cls-2" d="M310.6,39.8H291.87a6.6,6.6,0,0,0,2,3.62,5.08,5.08,0,0,0,3.51,1.32,5.71,5.71,0,0,0,5.44-3L310,43.27a12.16,12.16,0,0,1-4.91,6,14.58,14.58,0,0,1-7.76,2,13.27,13.27,0,0,1-9.57-3.79,13,13,0,0,1-3.92-9.75A13,13,0,0,1,287.8,28a13.24,13.24,0,0,1,9.62-3.82,12.75,12.75,0,0,1,9.31,3.71,13.55,13.55,0,0,1,3.87,9.83Zm-16.49-7.94a5.4,5.4,0,0,0-2.09,3h10.54a5.43,5.43,0,0,0-1.93-3,5.25,5.25,0,0,0-3.21-1A5.68,5.68,0,0,0,294.11,31.86Z"/><path class="cls-2" d="M334.2,27.1a10.93,10.93,0,0,1,2.72,7.72V50.49h-8.1V36.55a5.29,5.29,0,0,0-1.22-3.64,4,4,0,0,0-3.15-1.4,4.71,4.71,0,0,0-3.9,1.75,8.56,8.56,0,0,0-1.4,5.37V50.49H311V24.94h8.14v2.44a10.38,10.38,0,0,1,7.84-3.2A9.39,9.39,0,0,1,334.2,27.1Z"/><path class="cls-2" d="M356.46,39.65,364,41.28a12,12,0,0,1-4.58,7.23,13.59,13.59,0,0,1-8.45,2.75,14,14,0,0,1-9.9-3.79,12.76,12.76,0,0,1-4-9.75A12.76,12.76,0,0,1,341,28a13.84,13.84,0,0,1,9.9-3.82,13.56,13.56,0,0,1,8.34,2.7A12.21,12.21,0,0,1,364,34l-7.64,1.83a5.81,5.81,0,0,0-1.93-3.38,5.38,5.38,0,0,0-3.46-1.15,5.77,5.77,0,0,0-4.43,1.81,6.51,6.51,0,0,0-1.68,4.61,6.48,6.48,0,0,0,1.68,4.63,5.79,5.79,0,0,0,4.43,1.78Q355.19,44.13,356.46,39.65Z"/><path class="cls-2" d="M389.4,39.8H370.67a6.58,6.58,0,0,0,2,3.62,5.09,5.09,0,0,0,3.51,1.32,5.72,5.72,0,0,0,5.45-3l7.23,1.48a12.27,12.27,0,0,1-4.91,6,14.59,14.59,0,0,1-7.77,2,13.3,13.3,0,0,1-9.57-3.79,13,13,0,0,1-3.92-9.75A13,13,0,0,1,366.59,28a13.25,13.25,0,0,1,9.62-3.82,12.77,12.77,0,0,1,9.32,3.71,13.55,13.55,0,0,1,3.87,9.83Zm-16.5-7.94a5.39,5.39,0,0,0-2.08,3h10.53a5.38,5.38,0,0,0-1.93-3,5.23,5.23,0,0,0-3.21-1A5.7,5.7,0,0,0,372.9,31.86Z"/></svg>
